<svg
    xmlns="http://www.w3.org/2000/svg"
    viewBox="0 0 8 16"
    id="vector">
    <path
        id="path"
        d="M 7 0 L 1 0 C 0.448 0 0 0.448 0 1 L 0 15 C 0 15.552 0.448 16 1 16 L 7 16 C 7.552 16 8 15.552 8 15 L 8 1 C 8 0.448 7.552 0 7 0 Z M 1 15 L 1 1 L 7 1 L 7 3 L 5.25 3 C 5.112 3 5 3.112 5 3.25 L 5 3.75 C 5 3.888 5.112 4 5.25 4 L 7 4 L 7 6 L 5.25 6 C 5.112 6 5 6.112 5 6.25 L 5 6.75 C 5 6.888 5.112 7 5.25 7 L 7 7 L 7 9 L 5.25 9 C 5.112 9 5 9.112 5 9.25 L 5 9.75 C 5 9.888 5.112 10 5.25 10 L 7 10 L 7 12 L 5.25 12 C 5.112 12 5 12.112 5 12.25 L 5 12.75 C 5 12.888 5.112 13 5.25 13 L 7 13 L 7 15 L 1 15 Z"
        fill="#212121"/>
</svg>
