<svg
    xmlns="http://www.w3.org/2000/svg"
    viewBox="0 0 206 208"
    id="vector">
    <path
        id="path_1"
        d="M 127.762 104 C 127.762 117.676 116.676 128.762 103 128.762 C 89.324 128.762 78.238 117.676 78.238 104 C 78.238 90.324 89.324 79.238 103 79.238 C 116.676 79.238 127.762 90.324 127.762 104 Z"
        fill="#212121"/>
    <path
        id="path_2"
        d="M 103 208 C 155.393 208 198.738 169.257 205.947 118.857 L 145.035 118.857 C 138.917 136.169 122.407 148.571 103 148.571 C 83.593 148.571 67.084 136.169 60.965 118.857 L 0.053 118.857 C 7.262 169.257 50.607 208 103 208 Z M 60.965 89.143 L 0.053 89.143 C 7.262 38.743 50.607 0 103 0 C 155.393 0 198.738 38.743 205.947 89.143 L 145.035 89.143 C 138.917 71.831 122.407 59.429 103 59.429 C 83.593 59.429 67.084 71.831 60.965 89.143 Z M 127.762 104 C 127.762 117.676 116.676 128.762 103 128.762 C 89.324 128.762 78.238 117.676 78.238 104 C 78.238 90.324 89.324 79.238 103 79.238 C 116.676 79.238 127.762 90.324 127.762 104 Z"
        fill="#212121"
        fill-rule="evenodd"/>
</svg>
