<svg
    xmlns="http://www.w3.org/2000/svg"
    viewBox="0 0 16 16"
    id="vector">
    <path
        id="path"
        d="M 14 2 L 11.975 2 C 11.061 0.793 9.627 0 8 0 C 6.373 0 4.939 0.793 4.025 2 L 2 2 C 0.897 2 0 2.897 0 4 L 0 14 C 0 15.103 0.897 16 2 16 L 14 16 C 15.103 16 16 15.103 16 14 L 16 4 C 16 2.897 15.103 2 14 2 Z M 8 1 C 10.209 1 12 2.791 12 5 C 12 7.209 10.209 9 8 9 C 5.791 9 4 7.209 4 5 C 4 2.791 5.791 1 8 1 Z M 15 14 C 15 14.552 14.552 15 14 15 L 2 15 C 1.448 15 1 14.552 1 14 L 1 4 C 1 3.448 1.448 3 2 3 L 3.424 3 C 3.154 3.613 3 4.288 3 5 C 3 7.757 5.243 10 8 10 C 10.757 10 13 7.757 13 5 C 13 4.288 12.846 3.613 12.576 3 L 14 3 C 14.552 3 15 3.448 15 4 L 15 14 Z M 8 8 C 8.827 8 9.5 7.327 9.5 6.5 C 9.5 6.065 9.311 5.676 9.014 5.402 L 9.959 3.197 C 10.068 2.943 9.951 2.649 9.697 2.541 C 9.444 2.432 9.149 2.549 9.04 2.803 L 8.095 5.01 C 6.987 4.938 6.5 5.895 6.5 6.5 C 6.5 7.327 7.173 8 8 8 Z M 8 6 C 8.276 6 8.5 6.224 8.5 6.5 C 8.5 6.776 8.276 7 8 7 C 7.724 7 7.5 6.776 7.5 6.5 C 7.5 6.224 7.724 6 8 6 Z"
        fill="#212121"/>
</svg>
